<svg width="512" height="512" viewBox="0 0 512 512" fill="none" xmlns="http://www.w3.org/2000/svg">
<path d="M227.05 84.5725C206.125 84.925 187.225 97.405 178.675 116.703L281.05 147.625C285.55 120.783 269.425 94.7575 243.475 86.86C238.825 85.45 233.95 84.6775 229.075 84.5725H227.05ZM174.775 129.633C170.2 156.55 186.325 182.65 212.35 190.525C238.45 198.4 266.275 185.5 277.225 160.525L174.775 129.633ZM373.9 162.85C354.925 162.925 334.75 172.075 319.525 193.6L225.925 326.275C200.8 361.825 211.75 399.025 236.5 416.575C261.325 434.2 299.95 432.175 325.075 396.625L418.6 264.025C443.725 228.4 432.775 191.275 408.025 173.65C398.725 167.05 387.55 163.225 375.775 162.85H373.9ZM372.55 175.825C373.525 175.825 374.5 175.825 375.4 175.9C384.475 176.275 393.025 179.5 400.225 184.675C419.5 198.325 429.175 225.55 407.5 256.225L359.125 324.85C332.275 317.65 297.775 293.125 282.1 270.1L330.625 201.4C343.3 183.475 358.375 176.125 372.55 175.825ZM132.437 232.975C125.222 233.05 118.105 234.55 111.49 237.475C86.6575 248.35 73.735 276.1 81.31 302.2L179.35 259.375C169.525 242.8 151.675 232.75 132.437 232.975ZM184.675 271.675L86.65 314.575C100.487 338.125 129.625 347.575 154.6 336.7C179.5 325.75 192.4 297.85 184.675 271.675Z" fill="#00C853"/>
</svg>
